<svg width="181" height="60" viewBox="0 0 181 60" fill="none" xmlns="http://www.w3.org/2000/svg">
<path d="M30 60C46.5685 60 60 46.5685 60 30C60 13.4315 46.5685 0 30 0C13.4315 0 0 13.4315 0 30C0 46.5685 13.4315 60 30 60Z" fill="#FCD100" style="fill:#FCD100;fill:color(display-p3 0.9882 0.8196 0.0000);fill-opacity:1;"/>
<path d="M36.6522 14.6915C36.7255 14.9175 36.7683 15.1008 36.8354 15.2718C37.142 16.174 37.2868 17.1232 37.2631 18.0757C37.2551 19.5805 36.9435 21.0682 36.3467 22.4496C36.1879 22.8283 36.0535 23.2071 35.9008 23.5858C35.7878 23.8618 35.7878 24.1712 35.9008 24.4471C36.0153 24.8015 36.1777 25.1385 36.3834 25.449C36.496 25.5884 36.5526 25.7648 36.5422 25.9438C36.4787 25.9329 36.4186 25.9073 36.3666 25.8691C36.3147 25.831 36.2723 25.7812 36.2429 25.7239C36.0352 25.3757 35.8336 25.0275 35.632 24.6671C35.5791 24.5403 35.5518 24.4043 35.5518 24.2669C35.5518 24.1296 35.5791 23.9936 35.632 23.8668C35.9252 22.9383 36.2429 22.0342 36.4872 21.069C36.8468 19.7549 36.9464 18.3834 36.7805 17.0311C36.7441 16.7373 36.6828 16.4471 36.5972 16.1637C36.251 15.0315 35.8927 13.9055 35.5221 12.7856C35.2544 12.0556 34.9317 11.347 34.5569 10.6658C33.83 10.8796 33.1152 11.0751 32.4127 11.3134C31.9836 11.4737 31.5635 11.6573 31.1543 11.8631C30.8687 12.0065 30.6387 12.2407 30.5007 12.529C30.2686 12.9749 30.012 13.4148 29.7615 13.8485C29.2921 14.6958 28.8937 15.5805 28.5703 16.4936C28.5234 16.6399 28.4662 16.7828 28.3993 16.9212C28.3698 17.0022 28.319 17.0739 28.2524 17.1286C28.1858 17.1834 28.1058 17.2194 28.0205 17.2327C28.0223 17.1665 28.0325 17.1008 28.0511 17.0372C28.2038 16.6707 28.3626 16.3103 28.5154 15.9499C28.5541 15.8439 28.5867 15.7358 28.6131 15.6261C28.4843 15.6128 28.3545 15.6383 28.2405 15.6994C26.9454 16.182 25.6931 16.7501 24.4408 17.3427C22.7245 18.1661 21.0672 19.107 19.4805 20.1588C19.3493 20.2395 19.2301 20.3382 19.1262 20.452C17.8336 21.9513 16.7128 23.5905 15.7847 25.339C15.3999 26.0721 15.0945 26.8479 14.7646 27.6115C14.6307 27.9638 14.6178 28.3506 14.7279 28.711C14.8686 29.2784 14.8324 29.8753 14.6241 30.4215C14.5954 30.5151 14.5565 30.6052 14.508 30.6903C14.0558 31.5024 13.648 32.3385 13.2863 33.1948C13.103 33.5675 12.9014 33.9279 12.6754 34.2944C12.3333 34.9053 11.979 35.5162 11.6308 36.127C11.5758 36.2187 11.4964 36.3103 11.5575 36.4569C11.6384 36.443 11.7181 36.4226 11.7957 36.3958C12.7573 36.0298 13.7407 35.7238 14.7402 35.4795C14.8996 35.4386 15.0644 35.4221 15.2289 35.4306C15.4366 35.4306 15.4976 35.5284 15.5282 35.7422C15.6325 36.6098 15.4317 37.4867 14.9601 38.2223C14.6613 38.7665 14.2437 39.2363 13.7383 39.5968C13.7093 39.625 13.6827 39.6557 13.6589 39.6884C13.7017 39.7556 13.7383 39.8289 13.7872 39.9022C14.2733 40.6192 14.8526 41.2683 15.5099 41.8326C15.6631 41.9544 15.8266 42.0628 15.9986 42.1564C16.2205 42.2808 16.3962 42.4736 16.4995 42.7062C16.6953 43.1116 16.9552 43.4829 17.2692 43.8057C17.4224 43.9448 17.588 44.0695 17.764 44.1784C17.8755 44.2432 17.9817 44.3167 18.0816 44.3983C18.1365 44.4532 18.2052 44.4924 18.2804 44.5117C18.3556 44.5311 18.4347 44.5299 18.5092 44.5082C19.8041 44.2714 21.0547 43.8366 22.2172 43.2193C22.8384 42.9223 23.4332 42.5728 23.9949 42.1747L24.1537 42.0525C24.7638 41.6716 25.278 41.1553 25.6565 40.5437C25.7765 40.3595 25.9092 40.184 26.0535 40.0183C26.5641 39.356 26.8813 38.5652 26.9698 37.7336C26.9594 37.5444 27.022 37.3584 27.1448 37.214C27.2676 37.0696 27.4411 36.9779 27.6296 36.9578C27.7887 36.9205 27.9499 36.8919 28.1122 36.8723C28.169 36.8654 28.2264 36.8654 28.2832 36.8723C28.3382 37.0067 28.2832 37.08 28.216 37.1655C28.0938 37.3488 27.99 37.5382 27.8556 37.7092C27.7384 37.867 27.6076 38.0142 27.4646 38.149C27.2125 38.3891 27.0055 38.6726 26.8538 38.9859C26.834 39.0372 26.8196 39.0905 26.811 39.1448C27.2087 39.0366 27.623 39.0034 28.0328 39.047C28.3932 39.0837 28.7536 39.1325 29.1079 39.1814C30.1158 39.3219 31.1238 39.4563 32.1623 39.6151C33.0053 39.7495 33.8544 39.8778 34.6852 40.0611C36.1786 40.3991 37.5579 41.1214 38.6864 42.1564C40.0013 43.3356 41.1647 44.6734 42.15 46.1393C42.9527 47.3404 43.6712 48.5957 44.3003 49.8961C44.3142 49.944 44.3142 49.9949 44.3003 50.0427L44.1293 49.8411L43.9399 49.609L41.362 46.2065C40.4516 44.9968 39.4422 43.8648 38.3443 42.8222C36.8975 41.4298 35.0684 40.5004 33.0908 40.1527C32.0829 39.9694 31.0627 39.8412 30.0364 39.6945C29.4256 39.609 28.778 39.5235 28.1427 39.4746C27.7948 39.4533 27.446 39.4533 27.0981 39.4746C26.9454 39.4746 26.7927 39.4746 26.6094 39.4746C26.53 39.6273 26.4384 39.7862 26.359 39.9572C25.992 40.7327 25.4677 41.4233 24.8196 41.9853C24.2855 42.4218 23.7154 42.8121 23.1152 43.1521C22.3255 43.6013 21.4818 43.9482 20.6045 44.1845C19.9448 44.3922 19.2789 44.5815 18.6131 44.7404C18.3317 44.7832 18.0454 44.7832 17.764 44.7404C17.5287 44.7033 17.3132 44.5869 17.1531 44.4105C16.8933 44.1325 16.6863 43.8096 16.5422 43.4575C16.4323 43.2193 16.3406 42.9749 16.2368 42.7306C16.1662 42.5466 16.0288 42.3961 15.8519 42.3091C14.9158 41.8449 14.0923 41.1819 13.439 40.3665C13.308 40.2019 13.2217 40.0062 13.1885 39.7984C13.1845 39.7382 13.1656 39.68 13.1337 39.6288C13.1017 39.5777 13.0576 39.5352 13.0053 39.5052C12.6143 39.2779 12.2882 38.954 12.0584 38.5644C11.7957 38.1918 11.5758 37.7886 11.307 37.4099C11.1647 37.1941 11.0838 36.9436 11.073 36.6853C11.0622 36.427 11.122 36.1707 11.246 35.9438C11.3315 35.73 11.4231 35.5223 11.5209 35.3329C11.6858 34.9847 11.8385 34.6365 12.0279 34.3005C12.8078 32.9291 13.5074 31.5136 14.1232 30.0611C14.2609 29.7506 14.3055 29.4068 14.2515 29.0715C14.172 28.4277 14.2474 27.7743 14.4714 27.1655C14.9308 25.8284 15.5633 24.5571 16.3529 23.3842C16.7316 22.8222 17.1287 22.2724 17.5196 21.7104C17.654 21.5149 17.7884 21.3134 17.9045 21.0996C18.165 20.6354 18.5161 20.2282 18.9369 19.9022C19.2056 19.7007 19.4439 19.4563 19.7004 19.2303C19.6271 18.9676 19.5416 18.7171 19.4866 18.4667C19.2549 17.5525 19.0713 16.6268 18.9369 15.6933C18.9369 15.5895 18.8758 15.4856 18.8574 15.3818C18.85 15.3577 18.8491 15.3321 18.855 15.3077C18.8608 15.2832 18.8731 15.2607 18.8906 15.2426C18.9081 15.2245 18.9301 15.2114 18.9543 15.2048C18.9786 15.1981 19.0042 15.198 19.0285 15.2046C19.1259 15.2252 19.2203 15.258 19.3095 15.3024C19.738 15.5237 20.2042 15.6625 20.684 15.7116C21.5781 15.8239 22.4237 16.1812 23.1274 16.744C23.2313 16.8234 23.329 16.9151 23.4451 17.0067C23.5137 16.9889 23.5811 16.9665 23.6467 16.9395C24.8216 16.3993 26.0271 15.9281 27.257 15.5284C27.6907 15.3879 28.1305 15.2413 28.5703 15.113C28.6494 15.0956 28.7213 15.0549 28.7769 14.996C28.8325 14.9372 28.869 14.863 28.8819 14.7831C29.1571 13.8127 29.5359 12.8746 30.012 11.9853C30.1247 11.7563 30.3062 11.5683 30.5312 11.4478C30.8916 11.2401 31.2582 11.0446 31.6247 10.8369C32.2905 10.4791 32.9957 10.2003 33.7261 10.0061C33.9609 9.95219 34.2001 9.91947 34.4408 9.90835C34.5227 9.90671 34.6032 9.92894 34.6727 9.97233C34.7421 10.0157 34.7974 10.0784 34.8318 10.1527C35.4754 11.2876 35.9917 12.4902 36.3712 13.7385C36.387 13.7781 36.3993 13.819 36.4078 13.8607C36.4181 13.926 36.4515 13.9854 36.502 14.028C36.5525 14.0706 36.6167 14.0936 36.6827 14.0928C37.0981 14.1356 37.5074 14.1967 37.9045 14.2333C38.8964 14.3348 39.8802 14.5042 40.8489 14.7404C41.8839 14.9814 42.9038 15.2833 43.9033 15.6445C44.1965 15.7422 44.4714 15.8766 44.7524 15.9988C44.8173 16.0334 44.8787 16.0743 44.9356 16.1209C44.7425 16.134 44.5485 16.1154 44.3614 16.066L43.1397 15.7727C42.1562 15.5284 41.1665 15.3573 40.1708 15.2046L37.318 14.7587C37.147 14.7404 36.9271 14.722 36.6522 14.6915ZM15.0639 36.1087C14.9684 36.1005 14.8723 36.1005 14.7768 36.1087C13.7417 36.1724 12.7171 36.3527 11.7224 36.6463C11.6343 36.6793 11.5502 36.7223 11.472 36.7746C11.5697 36.9517 11.6308 37.1167 11.7285 37.2572C11.9912 37.6298 12.26 38.0024 12.5349 38.3689C12.8094 38.6667 13.0491 38.9946 13.2496 39.3463C13.2644 39.3751 13.2829 39.4018 13.3046 39.4258C13.3223 39.4537 13.3461 39.4772 13.3742 39.4947C13.4023 39.5121 13.4339 39.523 13.4668 39.5265C13.4997 39.53 13.5329 39.5261 13.5641 39.515C13.5952 39.5039 13.6235 39.4859 13.6467 39.4624C13.6932 39.4327 13.7363 39.3979 13.775 39.3586C14.2024 38.9811 14.5245 38.499 14.7096 37.9597C14.8636 37.4573 14.972 36.9421 15.0334 36.4203C15.0505 36.3172 15.0607 36.2131 15.0639 36.1087ZM23.0969 17.1716C23.0114 17.1167 22.9442 17.0617 22.8709 17.025C22.1711 16.6376 21.4041 16.3868 20.6106 16.2859C20.1922 16.2339 19.7889 16.0967 19.4256 15.8827C19.3622 15.8571 19.2968 15.8366 19.2301 15.8216C19.3339 16.0965 19.4256 16.3286 19.505 16.5669C19.7137 17.2248 19.877 17.8963 19.9937 18.5766C19.9937 18.6866 19.9937 18.8149 20.1036 18.8943L23.0969 17.1716Z" fill="black" style="fill:black;fill-opacity:1;"/>
<path d="M21.5884 28.5034L21.8083 28.1674C21.5354 28.0454 21.3018 27.85 21.1335 27.603C20.9652 27.356 20.8689 27.0671 20.8553 26.7685C20.8553 26.6769 20.8553 26.5791 20.8126 26.4631L20.4644 26.3836C20.5254 26.3164 20.5499 26.2554 20.5987 26.2309C20.7173 26.1751 20.8398 26.1282 20.9653 26.0904C21.4601 25.9438 21.9488 25.7972 22.4436 25.6628C22.6341 25.6078 22.8279 25.5649 23.0239 25.5345C23.1213 25.5224 23.2198 25.5224 23.3171 25.5345C23.3446 25.5366 23.3714 25.5445 23.3956 25.5576C23.4199 25.5708 23.441 25.5889 23.4578 25.6109C23.4745 25.6328 23.4864 25.658 23.4927 25.6848C23.499 25.7117 23.4995 25.7396 23.4943 25.7667C23.4973 25.789 23.4973 25.8116 23.4943 25.8339C23.4112 26.2946 23.2989 26.7496 23.1583 27.1961C23.0596 27.4863 22.8994 27.7518 22.6885 27.9743C22.4776 28.1967 22.2211 28.371 21.9366 28.485C21.8365 28.518 21.7345 28.5445 21.6311 28.5645L21.5884 28.5034ZM21.4234 26.3959C21.3518 26.6741 21.3804 26.9687 21.5045 27.2279C21.6285 27.4871 21.8399 27.6943 22.1015 27.8131C22.5729 27.3864 22.8653 26.7972 22.9201 26.1637L21.4234 26.3959Z" fill="black" style="fill:black;fill-opacity:1;"/>
<path d="M83.4087 20.4704L77.3916 10.617H78.6683L84.0929 19.3769H85.1802L90.4521 10.617H91.7227L85.8644 20.4704H85.1802V26.5058H84.0929V20.4704H83.4087Z" fill="white" style="fill:white;fill-opacity:1;"/>
<path d="M107.276 10.617V11.6799H95.2964V17.9231H107.288V19.0165H95.2964V25.4185H107.288V26.5058H94.1968V10.6231L107.276 10.617Z" fill="white" style="fill:white;fill-opacity:1;"/>
<path d="M110.837 10.617V25.4185H121.986V26.5058H109.768V10.6231L110.837 10.617Z" fill="white" style="fill:white;fill-opacity:1;"/>
<path d="M125.553 10.617V25.4185H136.701V26.5058H124.484V10.6231L125.553 10.617Z" fill="white" style="fill:white;fill-opacity:1;"/>
<path d="M155.088 18.5645C155.088 21.1464 154.355 23.1175 152.889 24.4777C151.423 25.8379 149.312 26.514 146.555 26.5058C143.769 26.5058 141.653 25.8298 140.208 24.4777C138.762 23.1257 138.045 21.1546 138.057 18.5645C138.057 15.9459 138.798 13.9666 140.281 12.6268C141.763 11.2869 143.867 10.617 146.591 10.617C149.316 10.617 151.417 11.2706 152.895 12.5779C154.374 13.8852 155.105 15.8807 155.088 18.5645ZM154.001 18.4912C154.001 13.9707 151.541 11.7084 146.622 11.7044C144.081 11.7044 142.195 12.2806 140.965 13.4331C139.743 14.5816 139.132 16.292 139.132 18.5645C139.132 20.8369 139.743 22.5779 141.008 23.7141C142.272 24.8504 144.129 25.4185 146.628 25.4185C149.126 25.4185 150.977 24.8076 152.187 23.5859C153.396 22.3641 154.001 20.6903 154.001 18.4912Z" fill="white" style="fill:white;fill-opacity:1;"/>
<path d="M161.399 26.5058L156.542 10.6231H157.52L162.492 26.4386L167.489 10.617H169.823L175.113 26.4631L179.597 10.617H180.733L176.237 26.4997H173.971L168.674 10.6537L163.653 26.4997L161.399 26.5058Z" fill="white" style="fill:white;fill-opacity:1;"/>
<path d="M80.1345 49.383H77.3184V34.4472H86.1333C86.8481 34.4357 87.5587 34.5579 88.2286 34.8076C88.8147 35.0367 89.3486 35.3816 89.7985 35.8216C90.2461 36.2666 90.5939 36.8018 90.8187 37.3916C91.0699 38.0442 91.1943 38.7387 91.1852 39.438C91.2024 40.1566 91.0408 40.8682 90.7148 41.5088C90.4202 42.0745 90.0027 42.5671 89.4931 42.9505C88.9518 43.3326 88.3482 43.6179 87.7093 43.7935C87.0346 43.9779 86.338 44.0704 85.6385 44.0684H80.1406L80.1345 49.383ZM80.1345 41.5516H85.6323C86.3069 41.5962 86.9773 41.4157 87.5383 41.0385C87.7714 40.8459 87.9543 40.5997 88.0713 40.321C88.1883 40.0422 88.236 39.7392 88.2102 39.438C88.2422 39.0897 88.1945 38.7388 88.0707 38.4117C87.9468 38.0847 87.7501 37.7901 87.4955 37.5504C86.9301 37.121 86.2315 36.9047 85.5224 36.9395H80.1223L80.1345 41.5516Z" fill="white" style="fill:white;fill-opacity:1;"/>
<path d="M100.623 34.4471L105.871 49.383H102.816L101.686 46.0537H93.7449L92.5231 49.383H89.4688L94.8689 34.4471H97.7278L94.4657 43.6652H100.868L97.7278 34.4471H100.623Z" fill="white" style="fill:white;fill-opacity:1;"/>
<path d="M106.769 49.383V34.4471H109.542V49.383H106.769ZM121.149 34.4471V49.383H115.541L109.542 34.4471H112.358L118.375 49.383V34.4471H121.149Z" fill="white" style="fill:white;fill-opacity:1;"/>
<path d="M136.225 34.4471V37.0678H130.605V49.383H127.788V37.0678H122.217V34.4471H136.225Z" fill="white" style="fill:white;fill-opacity:1;"/>
<path d="M152.107 34.4471V49.383H149.297V43.1704H140.079V49.383H137.263V34.4471H140.079V40.5559H149.297V34.4471H152.107Z" fill="white" style="fill:white;fill-opacity:1;"/>
<path d="M165.468 34.4471V37.0678H155.999V40.5925H165.468V43.036H155.999V46.7013H165.468V49.328H153.177V34.4471H165.468Z" fill="white" style="fill:white;fill-opacity:1;"/>
<path d="M169.352 49.383H166.536V34.4471H175.18C175.838 34.4496 176.494 34.5089 177.141 34.6243C177.779 34.7332 178.397 34.9392 178.974 35.2352C179.508 35.5215 179.97 35.927 180.324 36.4203C180.69 36.9731 180.874 37.6268 180.849 38.2895C180.857 38.774 180.711 39.2486 180.434 39.6457C180.153 40.0369 179.798 40.369 179.389 40.6231C178.964 40.8902 178.503 41.0959 178.021 41.2339C177.58 41.3674 177.124 41.4453 176.664 41.4661H180.849V49.383H177.837V43.9829H169.346L169.352 49.383ZM169.352 36.9639V41.4844H175.156C175.526 41.4887 175.895 41.4351 176.249 41.3256C176.574 41.2273 176.876 41.0676 177.141 40.8552C177.406 40.6463 177.619 40.3786 177.763 40.0733C177.908 39.768 177.979 39.4334 177.972 39.0959C177.983 38.7374 177.897 38.3825 177.721 38.0696C177.555 37.8074 177.331 37.586 177.068 37.4221C176.791 37.2527 176.487 37.1329 176.17 37.0678C175.844 37.0003 175.512 36.9655 175.18 36.9639H169.352Z" fill="white" style="fill:white;fill-opacity:1;"/>
</svg>
